<svg width="20" height="20" viewBox="0 0 20 20" fill="none" xmlns="http://www.w3.org/2000/svg"> <path d="M8.57213 16.5934C6.49582 16.3131 4.81233 15.2482 3.76215 13.5186C3.52165 13.1182 3.60983 12.5657 4.01067 12.3095C4.4115 12.0532 4.96465 12.1733 5.21316 12.5897C6.03086 13.967 7.23335 14.5755 8.3637 14.8158C8.72445 14.8878 9.06115 14.6236 9.06115 14.2632C9.06115 12.4616 9.06115 7.465 9.06115 5.53523C9.06115 5.12686 8.64428 4.8466 8.2675 5.00675C7.65824 5.27099 7.12112 5.66335 6.76839 6.14379C6.60004 6.376 6.34351 6.49611 6.07896 6.49611C5.90259 6.49611 5.71821 6.44006 5.56589 6.32796C5.17308 6.03969 5.14903 5.44715 5.44564 5.0628C6.16714 4.12594 7.28947 3.4293 8.52403 3.12502C8.83668 3.04494 9.06115 2.77269 9.06115 2.4524V0.690781C9.06115 0.258384 8.67635 -0.0619102 8.25147 0.010156C4.8925 0.578678 2.11072 2.80472 0.779961 5.81549C0.28293 6.93652 0.795995 8.24973 1.93436 8.72216H1.95841C3.209 9.24264 4.58786 9.24264 5.64606 8.72216C6.01483 8.546 6.47177 8.60205 6.72831 8.93035C7.08104 9.37076 6.92872 10.0033 6.44772 10.2436C5.67011 10.6359 4.78026 10.8281 3.85835 10.8281C3.00859 10.8281 2.12676 10.6599 1.30104 10.3236C1.14873 10.2596 0.99641 10.1955 0.852111 10.1234C0.443262 9.91526 -0.0377358 10.2516 0.0023474 10.708C0.0424306 11.1644 0.0905304 11.6689 0.16268 11.9812C1.03649 15.9768 4.32331 19.0757 8.41982 19.6922C8.7485 19.7403 9.05313 19.476 9.05313 19.1477V17.1619C9.05313 16.8817 8.8447 16.6494 8.57213 16.6174V16.5934Z" fill="white"/> <path d="M11.2578 16.5935C13.3341 16.3132 15.0176 15.2482 16.0678 13.5186C16.3083 13.1183 16.2201 12.5658 15.8192 12.3095C15.4184 12.0533 14.8653 12.1734 14.6167 12.5898C13.799 13.9671 12.5966 14.5756 11.4662 14.8158C11.1055 14.8879 10.7688 14.6237 10.7688 14.2633C10.7688 12.4617 10.7688 7.46509 10.7688 5.53532C10.7688 5.12694 11.1856 4.84668 11.5624 5.00683C12.1717 5.27107 12.7088 5.66343 13.0615 6.14387C13.2299 6.37609 13.4864 6.4962 13.7509 6.4962C13.9273 6.4962 14.1117 6.44015 14.264 6.32804C14.6568 6.03978 14.6809 5.44723 14.3843 5.06288C13.6628 4.12602 12.5404 3.42938 11.3059 3.1251C10.9932 3.04503 10.7688 2.77278 10.7688 2.45248V0.690865C10.7688 0.258468 11.1536 -0.0618263 11.5784 0.0102399C14.9294 0.570755 17.7032 2.80481 19.0339 5.81557C19.5309 6.9366 19.0179 8.24981 17.8795 8.72224H17.8555C16.6049 9.24272 15.226 9.24272 14.1678 8.72224C13.799 8.54608 13.3421 8.60213 13.0856 8.93043C12.7328 9.37084 12.8852 10.0034 13.3661 10.2436C14.1438 10.636 15.0336 10.8282 15.9555 10.8282C16.8053 10.8282 17.6871 10.66 18.5128 10.3237C18.6651 10.2597 18.8175 10.1956 18.9618 10.1235C19.3706 9.91534 19.8516 10.2516 19.8115 10.7081C19.7714 11.1645 19.7233 11.669 19.6512 11.9812C18.7774 15.9769 15.4906 19.0758 11.3941 19.6923C11.0654 19.7404 10.7607 19.4761 10.7607 19.1478V17.162C10.7607 16.8817 10.9692 16.6495 11.2417 16.6175L11.2578 16.5935Z" fill="white"/> </svg>